<?xml version="1.0" encoding="utf-8"?>
<!-- Generator: Adobe Illustrator 16.0.0, SVG Export Plug-In . SVG Version: 6.00 Build 0)  -->
<!DOCTYPE svg PUBLIC "-//W3C//DTD SVG 1.1//EN" "http://www.w3.org/Graphics/SVG/1.1/DTD/svg11.dtd">
<svg version="1.1" id="Layer_1" xmlns="http://www.w3.org/2000/svg" xmlns:xlink="http://www.w3.org/1999/xlink" x="0px" y="0px"
	 width="413px" height="153.5px" viewBox="0 0 413 153.5" enable-background="new 0 0 413 153.5" xml:space="preserve">
<g>
	<path d="M353.932,52.268c-0.272-0.036-0.545-0.006-0.813,0.087c-0.517,0.169-0.858,0.5-1.029,0.992
		c-0.035,0.103-0.063,0.249-0.088,0.438c-0.014,0.106-0.026,0.201-0.037,0.285c0.031,0.09,0.045,0.146,0.042,0.167
		c0.083,0.354,0.233,0.646,0.449,0.878c0.216,0.232,0.535,0.375,0.957,0.429c0.484,0.063,0.913-0.053,1.283-0.348
		c0.37-0.294,0.593-0.728,0.667-1.297c0.011-0.427-0.113-0.791-0.373-1.093C354.726,52.504,354.375,52.325,353.932,52.268z"/>
	<path d="M352.84,60.454c-0.676-0.088-1.213,0.186-1.617,0.819c-0.207,0.273-0.308,0.55-0.3,0.829
		c-0.055,0.422,0.069,0.818,0.375,1.19c0.308,0.373,0.701,0.589,1.188,0.652c0.736,0.095,1.301-0.196,1.688-0.875
		c0.108-0.179,0.179-0.395,0.212-0.648c0.076-0.59-0.126-1.098-0.606-1.525C353.511,60.648,353.198,60.5,352.84,60.454z"/>
	<path d="M364.026,8.578c-21.551,0-39.02,17.47-39.02,39.019c0,21.549,17.469,39.019,39.02,39.019
		c21.549,0,39.02-17.47,39.02-39.019C403.046,26.048,385.575,8.578,364.026,8.578z M360.845,54.256
		c-0.167,1.286-0.693,2.461-1.582,3.525l-0.294,0.283c1.454,1.515,2.042,3.354,1.762,5.52c-0.102,0.779-0.33,1.551-0.687,2.317
		c-0.517,1.002-1.218,1.863-2.104,2.582c-0.794,0.667-1.629,1.147-2.501,1.44c-0.874,0.293-1.899,0.427-3.074,0.403
		c-0.237,0.012-0.474,0.003-0.704-0.027c-0.232-0.03-0.411-0.053-0.538-0.07c-0.505-0.065-0.953-0.166-1.343-0.302
		c-1.886-0.671-3.246-1.66-4.084-2.966c-0.572-0.886-0.964-1.631-1.175-2.237c-0.212-0.604-0.322-1.148-0.336-1.63
		c-0.013-0.483,0.013-0.956,0.071-1.418c0.227-1.745,1.145-3.209,2.755-4.39l0.635-0.431c-0.453-0.638-0.77-1.305-0.946-2.004
		c-0.177-0.698-0.218-1.416-0.122-2.154c0.044-0.337,0.12-0.68,0.229-1.031c0.332-1.071,0.75-1.901,1.255-2.489
		c0.506-0.589,1.251-1.13,2.236-1.624c0.412-0.204,0.896-0.377,1.449-0.52c0.555-0.143,1.101-0.222,1.639-0.238
		c0.537-0.016,1.018,0.003,1.44,0.058c0.504,0.065,1.019,0.197,1.539,0.393c0.521,0.196,1.009,0.442,1.464,0.736
		c1.145,0.77,1.972,1.708,2.48,2.813C360.823,51.901,361,53.055,360.845,54.256z M358.523,45.407c0,0-1.554-0.906-3.304-1.093
		s-3.779,0.176-3.779,0.176l2.052-15.842l-1.581-0.205l2.509-6.716l7.052,0.913L358.523,45.407z M373.327,73.011l-7.084-0.917
		l2.052-15.842l-1.58-0.205l2.509-6.716l7.053,0.913L373.327,73.011z M386.054,33.381c-0.077,0.591-0.247,1.244-0.511,1.959
		c-0.17,0.472-0.338,0.868-0.509,1.188c-0.17,0.321-0.385,0.646-0.642,0.978l-7.214,9.772l-8.253-1.069l4.634-5.991l-0.855-0.336
		l-0.363-0.176l-0.422-0.215c-1.545-0.822-2.678-1.911-3.403-3.27c-0.724-1.358-0.974-2.901-0.75-4.63
		c0.027-0.21,0.058-0.405,0.092-0.583c0.033-0.178,0.134-0.578,0.3-1.199c0.733-2.52,2.456-4.312,5.167-5.375
		c0.649-0.237,1.37-0.407,2.153-0.509c0.786-0.102,1.567-0.103,2.349-0.001c0.356,0.046,0.721,0.104,1.087,0.173
		c0.366,0.069,0.714,0.156,1.043,0.263c0.761,0.249,1.449,0.558,2.066,0.927c0.614,0.369,1.173,0.791,1.669,1.261
		c1.485,1.436,2.29,3.168,2.414,5.2c0.017,0.367,0.022,0.636,0.022,0.807C386.127,32.727,386.103,33.002,386.054,33.381z"/>
	<path d="M377.17,30.72c-0.188-0.024-0.383-0.017-0.582,0.021c-0.507,0.106-0.896,0.345-1.169,0.716
		c-0.272,0.373-0.431,0.716-0.471,1.032c-0.041,0.316,0.013,0.645,0.162,0.986c0.296,0.681,0.804,1.068,1.521,1.161
		c0.443,0.057,0.829-0.031,1.159-0.267l0.508-0.449c0.279-0.329,0.446-0.714,0.504-1.157c0.065-0.506-0.063-0.957-0.387-1.353
		C378.091,31.016,377.677,30.786,377.17,30.72z"/>
</g>
<path d="M40.517,55.743c-1.899,1.635-3.644,2.794-5.233,3.478c-1.59,0.686-3.335,1.027-5.234,1.027h-4.571v10.401H10.64V37.127
	H7.327L10.64,22.95h17.622c0.663,0,1.192,0.023,1.59,0.066c0.397,0.044,0.971,0.132,1.723,0.265
	c8.082,1.458,12.94,6.184,14.574,14.177c0.176,0.707,0.287,1.392,0.332,2.054c0.043,0.663,0.066,1.436,0.066,2.319
	c0,3.047-0.497,5.697-1.49,7.95C44.061,52.033,42.548,54.021,40.517,55.743z M28.792,37.525h-3.313v8.745h2.849
	c0.706,0,1.401-0.32,2.087-0.96c0.684-0.64,1.093-1.347,1.226-2.12c0.132-0.772,0.199-1.292,0.199-1.557
	c0-1.28-0.298-2.286-0.895-3.014C30.348,37.889,29.63,37.525,28.792,37.525z"/>
<path d="M83.842,70.648H69.997V51.636c0-1.854-1.37-2.783-4.107-2.783c-0.53,0-0.95,0-1.259,0l-0.927,0.133v21.663H49.857V34.46
	h-3.313l3.644-13.364h13.515v20.006l2.782-5.299h8.148c1.633,0,3.157,0.43,4.571,1.292c1.413,0.861,2.451,1.855,3.114,2.981
	s1.148,2.727,1.458,4.803l0.066,1.126v11.262h3.312L83.842,70.648z"/>
<path d="M102.921,56.074c0.574,1.104,1.369,1.933,2.385,2.484c1.016,0.553,2.495,0.938,4.438,1.159
	c0.221,0.044,0.441,0.066,0.663,0.066c0.265,0,0.53,0,0.795,0c1.988,0,4.946-0.419,8.877-1.258l1.789-0.464l-3.18,12.189
	l-2.65,0.397c-2.12,0.265-4.13,0.397-6.028,0.397c-6.979,0-12.454-1.667-16.429-5.001s-5.962-7.652-5.962-12.952
	c0-0.706,0.022-1.269,0.066-1.689c0.043-0.419,0.132-1.093,0.265-2.021c0.397-2.164,1.037-4.041,1.921-5.631
	c2.738-5.035,7.088-7.86,13.051-8.479c0.353,0,0.784-0.021,1.292-0.066c0.507-0.044,1.004-0.066,1.49-0.066
	c2.164,0,4.041,0.288,5.631,0.861c3.665,1.237,6.58,3.291,8.745,6.161c2.385,3.225,3.577,7.133,3.577,11.726l0.066,2.186
	L102.921,56.074L102.921,56.074z M104.578,45.011c-1.06,0.177-1.921,0.652-2.583,1.424c-0.663,0.773-0.994,1.689-0.994,2.75h8.678
	c0-1.192-0.409-2.197-1.226-3.014c-0.818-0.817-1.822-1.226-3.014-1.226C105.042,44.945,104.753,44.967,104.578,45.011z"/>
<path d="M160.821,70.648h-13.382V51.371c0-0.75-0.332-1.38-0.994-1.888c-0.663-0.507-1.568-0.762-2.716-0.762
	c-0.354,0-0.729,0.023-1.126,0.066c-0.397,0.044-0.818,0.132-1.259,0.265l-0.663,0.199v21.398H127.3V48.721h-3.313l3.313-12.918
	h13.382v6.028l2.782-6.028h7.619c1.545,0,2.76,0.132,3.644,0.397c0.883,0.265,1.789,0.751,2.716,1.457
	c0.927,0.707,1.656,1.568,2.186,2.584c0.795,1.414,1.192,3.158,1.192,5.233v11.792h3.313L160.821,70.648z"/>
<path d="M179.899,56.074c0.574,1.104,1.369,1.933,2.385,2.484c1.016,0.553,2.495,0.938,4.438,1.159
	c0.221,0.044,0.441,0.066,0.663,0.066c0.265,0,0.53,0,0.795,0c1.988,0,4.946-0.419,8.877-1.258l1.789-0.464l-3.18,12.189
	l-2.65,0.397c-2.12,0.265-4.13,0.397-6.028,0.397c-6.979,0-12.454-1.667-16.429-5.001s-5.962-7.652-5.962-12.952
	c0-0.706,0.022-1.269,0.066-1.689c0.043-0.419,0.132-1.093,0.265-2.021c0.397-2.164,1.037-4.041,1.921-5.631
	c2.738-5.035,7.088-7.86,13.051-8.479c0.353,0,0.784-0.021,1.292-0.066c0.507-0.044,1.004-0.066,1.49-0.066
	c2.164,0,4.041,0.288,5.631,0.861c3.665,1.237,6.58,3.291,8.745,6.161c2.385,3.225,3.577,7.133,3.577,11.726l0.066,2.186
	L179.899,56.074L179.899,56.074z M181.556,45.011c-1.06,0.177-1.921,0.652-2.583,1.424c-0.663,0.773-0.994,1.689-0.994,2.75h8.678
	c0-1.192-0.409-2.197-1.226-3.014c-0.818-0.817-1.822-1.226-3.014-1.226C182.02,44.945,181.731,44.967,181.556,45.011z"/>
<path d="M228.355,82.243c-0.892,0.264-2.168,0.44-3.832,0.528c-1.662,0.088-3.662,0.134-6.002,0.134
	c-2.694,0-5.002-0.265-6.924-0.796c-1.921-0.529-4.031-1.436-6.327-2.715l2.583-10.601c2.474,1.12,4.648,1.83,6.525,2.131
	c1.877,0.301,3.434,0.452,4.67,0.452c4.063,0,6.096-1.466,6.096-4.401v-3.35l-2.635,5.101h-1.713c-3.469,0-5.972-0.197-7.508-0.595
	c-3.382-0.793-6.016-2.446-7.904-4.958c-2.021-2.645-3.03-5.951-3.03-9.918c0-0.352,0-0.727,0-1.123
	c0.088-0.529,0.133-0.925,0.133-1.19c0.265-2.865,1.236-5.576,2.915-8.133c2.385-3.525,5.565-5.862,9.541-7.008
	c1.811-0.484,3.379-0.728,4.703-0.728c1.104,0,2.131,0.155,3.082,0.464c0.948,0.31,1.821,0.751,2.616,1.325l0.929-1.06h12.72v33.738
	c0,3.617-0.781,6.35-2.343,8.203C235.089,79.596,232.325,81.096,228.355,82.243z M225.146,52.898c0-1.345-0.332-2.466-0.994-3.362
	c-0.664-0.896-1.502-1.345-2.518-1.345c-1.679,0-3.004,0.397-3.975,1.192c-0.973,0.795-1.458,1.899-1.458,3.312
	c0,1.458,0.606,2.541,1.821,3.246c1.215,0.707,3.19,1.06,5.93,1.06h1.191v-4.103H225.146z"/>
<path d="M257.605,56.074c0.574,1.104,1.369,1.933,2.385,2.484c1.016,0.553,2.496,0.938,4.439,1.159
	c0.221,0.044,0.44,0.066,0.661,0.066c0.267,0,0.529,0,0.796,0c1.987,0,4.944-0.419,8.877-1.258l1.789-0.464l-3.181,12.189
	l-2.649,0.397c-2.119,0.265-4.129,0.397-6.027,0.397c-6.98,0-12.455-1.667-16.43-5.001c-3.976-3.334-5.963-7.652-5.963-12.952
	c0-0.706,0.021-1.269,0.065-1.689c0.043-0.419,0.133-1.093,0.267-2.021c0.396-2.164,1.036-4.041,1.92-5.631
	c2.737-5.035,7.09-7.86,13.051-8.479c0.354,0,0.783-0.021,1.293-0.066c0.506-0.044,1.004-0.066,1.49-0.066
	c2.161,0,4.041,0.288,5.631,0.861c3.666,1.237,6.58,3.291,8.744,6.161c2.385,3.225,3.577,7.133,3.577,11.726l0.066,2.186
	L257.605,56.074L257.605,56.074z M259.262,45.011c-1.059,0.177-1.92,0.652-2.584,1.424c-0.662,0.773-0.992,1.689-0.992,2.75h8.678
	c0-1.192-0.407-2.197-1.227-3.014c-0.816-0.817-1.82-1.226-3.014-1.226C259.727,44.945,259.438,44.967,259.262,45.011z"/>
<path d="M302.189,50.074l-1.324-0.199c-0.84-0.133-1.811,0.099-2.914,0.696c-1.105,0.598-1.9,1.958-2.385,4.082l-0.133,0.93v15.066
	h-13.449v-21.73h-3.313l3.313-13.117h13.449v3.378c1.457-1.766,3.709-3.024,6.756-3.776c1.104-0.221,2.098-0.332,2.981-0.332
	c0.483,0,0.838,0,1.06,0L302.189,50.074z"/>
<path d="M46.4,123.807c-1.469,3.861-3.754,7.07-6.859,9.628c-2.182,1.845-4.509,3.177-6.984,3.994
	c-2.475,0.819-5.411,1.229-8.809,1.229H10.474v-31.776H7.327l3.147-13.528h16.106c5.453,0,10.277,1.91,14.472,5.727
	c2.475,2.308,4.278,4.948,5.412,7.928c0.503,1.343,0.85,2.779,1.038,4.311c0.188,1.532,0.284,3.45,0.284,5.757
	c0,1.05-0.117,2.118-0.347,3.208C47.208,121.376,46.862,122.551,46.4,123.807z M28.972,107.888
	c-1.259-0.628-2.728-0.944-4.405-0.944v17.431h1.259c2.266-0.209,4.101-1.079,5.506-2.611c1.404-1.53,2.108-3.492,2.108-5.884
	c0-0.629-0.064-1.3-0.189-2.014C32.663,111.099,31.238,109.104,28.972,107.888z"/>
<path d="M64.144,124.814c0.545,1.049,1.3,1.837,2.265,2.359c0.965,0.525,2.37,0.893,4.215,1.102c0.209,0.044,0.42,0.063,0.629,0.063
	c0.251,0,0.504,0,0.755,0c1.888,0,4.698-0.398,8.432-1.195l1.699-0.439l-3.021,11.576l-2.518,0.378
	c-2.014,0.252-3.922,0.378-5.726,0.378c-6.628,0-11.83-1.582-15.604-4.749c-3.775-3.168-5.663-7.268-5.663-12.302
	c0-0.671,0.022-1.205,0.063-1.604c0.041-0.397,0.126-1.039,0.252-1.92c0.377-2.054,0.986-3.838,1.824-5.35
	c2.6-4.779,6.732-7.466,12.395-8.052c0.336,0,0.744-0.021,1.228-0.063c0.481-0.042,0.953-0.063,1.415-0.063
	c2.055,0,3.838,0.273,5.349,0.818c3.481,1.175,6.25,3.125,8.305,5.852c2.265,3.063,3.397,6.774,3.397,11.137l0.063,2.075
	L64.144,124.814L64.144,124.814z M65.717,114.307c-1.007,0.168-1.824,0.619-2.454,1.353c-0.629,0.734-0.944,1.604-0.944,2.611h8.242
	c0-1.133-0.389-2.087-1.164-2.863c-0.777-0.776-1.73-1.163-2.863-1.163C66.157,114.244,65.884,114.265,65.717,114.307z"/>
<path d="M108.062,138.657H92.834l-9.626-33.097H97.05l4.027,17.994l3.524-17.994h13.527L108.062,138.657z"/>
<path d="M132.159,124.814c0.545,1.049,1.3,1.837,2.265,2.359c0.965,0.525,2.37,0.893,4.215,1.102
	c0.21,0.044,0.419,0.063,0.629,0.063c0.251,0,0.503,0,0.755,0c1.888,0,4.698-0.398,8.432-1.195l1.699-0.439l-3.021,11.577
	l-2.517,0.379c-2.013,0.251-3.923,0.377-5.726,0.377c-6.628,0-11.828-1.582-15.604-4.75c-3.775-3.167-5.663-7.267-5.663-12.301
	c0-0.671,0.021-1.205,0.063-1.604c0.041-0.398,0.125-1.039,0.251-1.919c0.378-2.055,0.986-3.838,1.824-5.349
	c2.601-4.782,6.732-7.467,12.396-8.055c0.335,0,0.744-0.021,1.228-0.063c0.481-0.042,0.953-0.063,1.415-0.063
	c2.055,0,3.838,0.273,5.349,0.818c3.481,1.175,6.25,3.126,8.306,5.852c2.265,3.063,3.397,6.775,3.397,11.136l0.064,2.076H132.159z
	 M133.732,114.307c-1.007,0.168-1.825,0.619-2.454,1.353c-0.629,0.734-0.944,1.604-0.944,2.611h8.243
	c0-1.133-0.389-2.087-1.164-2.863c-0.778-0.776-1.731-1.163-2.863-1.163C134.173,114.244,133.899,114.265,133.732,114.307z"/>
<path d="M168.464,138.657h-13.15v-34.372h-3.147l4.091-12.693h12.207v34.372h3.208L168.464,138.657z"/>
<path d="M205.083,130.775c-2.685,4.371-6.522,7.122-11.514,8.258c-1.301,0.294-2.685,0.441-4.153,0.441
	c-4.112,0-7.781-1.3-11.012-3.901c-1.678-1.384-2.978-2.841-3.901-4.373c-0.923-1.53-1.635-3.45-2.138-5.757l-0.251-1.763
	c0-0.292-0.011-0.618-0.032-0.975c-0.021-0.356-0.031-0.599-0.031-0.724c0-3.985,1.447-7.678,4.341-11.075
	c2.727-3.104,6.271-4.97,10.635-5.6c0.881-0.125,1.803-0.189,2.768-0.189c0.544,0,0.964,0,1.259,0c2.054,0,3.901,0.359,5.537,1.072
	c1.636,0.715,3.334,1.808,5.097,3.277c0.922,0.759,1.657,1.534,2.202,2.334c2.392,3.109,3.587,6.535,3.587,10.275
	C207.475,125.229,206.677,128.129,205.083,130.775z M191.051,117.578c-0.503-0.126-1.007-0.188-1.51-0.188
	c-0.21,0-0.525,0.041-0.943,0.126c-1.175,0.252-2.118,0.765-2.832,1.542c-0.714,0.776-1.07,1.73-1.07,2.862
	c-0.21,2.391,0.755,4.027,2.895,4.908c0.545,0.21,0.986,0.356,1.322,0.441c0.209,0.042,0.504,0.063,0.88,0.063
	c1.132,0,2.117-0.335,2.957-1.008c0.839-0.67,1.384-1.551,1.637-2.642c0.125-0.504,0.189-1.008,0.189-1.511
	C194.575,119.865,193.4,118.333,191.051,117.578z"/>
<path d="M243.399,133.687c-1.343,1.468-2.799,2.611-4.372,3.429c-1.573,0.818-3.45,1.375-5.631,1.668
	c-0.588,0.083-1.132,0.146-1.638,0.188c-0.502,0.042-1.09,0.064-1.759,0.064c-1.849,0-3.755-0.294-5.728-0.88v11.388h-13.15v-31.901
	h-3.146l3.146-12.079h13.15v5.348l2.957-5.348h5.853c3.146,0,6.124,1.195,8.935,3.587c2.643,2.181,4.362,5.284,5.16,9.311
	c0.041,0.337,0.104,0.892,0.187,1.668c0.085,0.776,0.127,1.583,0.127,2.423c0,2.223-0.356,4.277-1.071,6.165
	C245.709,130.603,244.7,132.262,243.399,133.687z M225.279,118.271h-1.007v2.915c0,1.563,0.284,2.799,0.851,3.707
	c0.565,0.909,1.353,1.5,2.36,1.774c1.005,0.275,1.845,0.411,2.517,0.411c1.424,0,2.518-0.608,3.271-1.825
	c0.334-0.501,0.524-0.952,0.566-1.352c0.04-0.398,0.063-0.85,0.063-1.354c0-1.594-0.641-2.705-1.92-3.333
	C230.701,118.584,228.467,118.271,225.279,118.271z"/>
<path d="M305.52,138.657h-12.646v-17.871c0-1.97-1.385-2.957-4.154-2.957c-0.252,0-0.714,0-1.383,0l-0.944,0.253v20.572h-12.711
	v-17.806c0-0.462-0.166-0.922-0.503-1.385c-0.335-0.462-0.829-0.881-1.478-1.258c-0.652-0.379-1.374-0.567-2.171-0.567
	c-0.42,0-0.924,0.064-1.51,0.188l-0.755,0.252v20.575h-12.712v-21.016h-3.146l3.146-12.079h12.71v6.103l2.595-6.103h7.984
	c1.731,0,3.504,0.714,5.318,2.138c0.846,0.672,1.646,1.595,2.408,2.769c0.168,0.252,0.355,0.566,0.569,0.944
	c0.084,0.126,0.167,0.335,0.253,0.63l2.938-6.48h7.001c1.793,0,3.199,0.23,4.219,0.691c1.02,0.463,2.031,1.363,3.032,2.705
	c0.626,0.881,1.148,2.076,1.563,3.587c0.25,1.133,0.375,1.992,0.375,2.579v10.823h3.146L305.52,138.657z"/>
<path d="M323.642,124.814c0.544,1.049,1.299,1.837,2.267,2.359c0.965,0.525,2.367,0.893,4.214,1.102
	c0.209,0.044,0.418,0.063,0.63,0.063c0.25,0,0.503,0,0.755,0c1.888,0,4.696-0.398,8.432-1.195l1.697-0.439l-3.021,11.577
	l-2.515,0.379c-2.015,0.251-3.924,0.377-5.727,0.377c-6.629,0-11.83-1.582-15.605-4.75c-3.774-3.167-5.661-7.267-5.661-12.301
	c0-0.671,0.021-1.205,0.063-1.604c0.041-0.398,0.124-1.039,0.251-1.919c0.378-2.055,0.984-3.838,1.825-5.349
	c2.6-4.782,6.73-7.467,12.395-8.055c0.335,0,0.744-0.021,1.226-0.063c0.483-0.042,0.955-0.063,1.417-0.063
	c2.056,0,3.839,0.273,5.349,0.818c3.481,1.175,6.249,3.126,8.306,5.852c2.266,3.063,3.396,6.775,3.396,11.136l0.063,2.076H323.642z
	 M325.214,114.307c-1.007,0.168-1.823,0.619-2.453,1.353c-0.628,0.734-0.943,1.604-0.943,2.611h8.242
	c0-1.133-0.388-2.087-1.163-2.863c-0.777-0.776-1.731-1.163-2.863-1.163C325.655,114.244,325.382,114.265,325.214,114.307z"/>
<path d="M378.633,138.657h-12.708v-18.311c0-0.712-0.316-1.312-0.945-1.794c-0.629-0.48-1.489-0.724-2.578-0.724
	c-0.339,0-0.695,0.023-1.07,0.064c-0.378,0.042-0.778,0.126-1.196,0.252l-0.63,0.188v20.323h-12.707v-20.825h-3.146l3.146-12.27
	h12.707v5.726l2.645-5.726h7.234c1.469,0,2.621,0.124,3.462,0.377c0.838,0.252,1.698,0.714,2.579,1.385
	c0.88,0.672,1.573,1.489,2.077,2.453c0.755,1.343,1.132,3,1.132,4.971v11.2h3.146L378.633,138.657z"/>
<path d="M399.9,117.956h-2.266v20.701h-13.15v-20.701h-4.53l3.145-12.395h1.386v-4.477l13.15-3.215v7.691h5.411L399.9,117.956z"/>
<rect x="10.393" y="143.311" width="194.315" height="6.232"/>
<rect x="232.845" y="143.311" width="170.201" height="6.232"/>
<rect x="10.167" y="75.394" width="188.333" height="5.773"/>
<rect x="242.303" y="75.394" width="67.336" height="5.773"/>
</svg>
